# xmcd CD database file
#
# Track frame offsets:
#	150
#	17848
#	37308
#	57460
#	74723
#	94278
#	110288
#	126963
#	143168
#	163355
#	182845
#	202890
#	224110
#	246365
#	265823
#
# Disc length: 3795 seconds
#
# Revision: 2
# Processed by: cddbd v1.5.1PL0 Copyright (c) Steve Scherf et al.
# Submitted via: CDex 1.51
#
DISCID=f80ed10f
DTITLE=THOMAS HARDIN TRIO - JAZZで聴くクラシック〜森の憩い編〜
DYEAR=2003
DGENRE=Jazz
TTITLE0=歌の翼に
TTITLE1=四季「春」
TTITLE2=楽しき農夫
TTITLE3=ひばり
TTITLE4=菩提樹
TTITLE5=スプリング・ソナタ
TTITLE6=白鳥の湖
TTITLE7=愛の喜び
TTITLE8=タイスの瞑想曲
TTITLE9=弦楽四重奏曲第17番「セレナード」
TTITLE10=雨だれ
TTITLE11=月光
TTITLE12=わが母の教えたまいし歌
TTITLE13=シチリアーナ
TTITLE14=交響曲第40番 第一楽章
EXTD=YEAR: 2003
EXTT0=
EXTT1=
EXTT2=
EXTT3=
EXTT4=
EXTT5=
EXTT6=
EXTT7=
EXTT8=
EXTT9=
EXTT10=
EXTT11=
EXTT12=
EXTT13=
EXTT14=
PLAYORDER=
